<svg width="18" height="18" viewBox="0 0 18 18" fill="none" xmlns="http://www.w3.org/2000/svg">
<g clip-path="url(#clip0_402_2332)">
<path d="M13.3215 17.9996C7.22326 18.2059 -3.76274 7.30835 1.33801 1.39985L2.20051 0.64985C2.6371 0.227799 3.22232 -0.00536721 3.82952 0.000808738C4.43673 0.00698468 5.01709 0.252006 5.44501 0.68285C5.46813 0.706403 5.48968 0.731457 5.50951 0.75785L6.85951 2.5121C7.26977 2.94623 7.49773 3.52128 7.49633 4.1186C7.49494 4.71591 7.2643 5.2899 6.85201 5.7221L5.98351 6.8141C6.46434 7.9819 7.17107 9.04325 8.06312 9.93724C8.95518 10.8312 10.015 11.5402 11.1818 12.0236L12.2798 11.1499C12.7176 10.7477 13.2902 10.5242 13.8846 10.5234C14.4791 10.5226 15.0523 10.7445 15.4913 11.1454L17.2463 12.4954C17.2725 12.5151 17.2975 12.5364 17.3213 12.5591C17.7541 12.9959 17.9969 13.5859 17.9969 14.2009C17.9969 14.8158 17.7541 15.4058 17.3213 15.8426L16.638 16.6301C16.2046 17.0682 15.6879 17.4151 15.1183 17.6503C14.5487 17.8855 13.9377 18.0043 13.3215 17.9996ZM3.80326 1.4996C3.69547 1.49952 3.58873 1.52067 3.48913 1.56185C3.38952 1.60303 3.29901 1.66343 3.22276 1.7396L2.35951 2.4896C-1.87499 7.5806 11.0828 19.8169 15.54 15.6056L16.224 14.8174C16.3053 14.745 16.3715 14.6572 16.4187 14.5592C16.466 14.4611 16.4934 14.3547 16.4993 14.246C16.5052 14.1373 16.4896 14.0285 16.4533 13.9259C16.417 13.8233 16.3607 13.7289 16.2878 13.6481L14.5425 12.3079C14.5158 12.2882 14.4907 12.2664 14.4675 12.2426C14.311 12.0935 14.1032 12.0103 13.887 12.0103C13.6709 12.0103 13.463 12.0935 13.3065 12.2426C13.2866 12.2628 13.2656 12.2818 13.2435 12.2996L11.775 13.4696C11.6731 13.5507 11.5517 13.6039 11.423 13.6239C11.2942 13.6439 11.1625 13.63 11.0408 13.5836C9.52885 13.0204 8.15567 12.1388 7.01423 10.9985C5.8728 9.85821 4.98978 8.48593 4.42501 6.9746C4.37501 6.85113 4.3588 6.71657 4.37804 6.58475C4.39729 6.45294 4.45129 6.32862 4.53451 6.2246L5.70001 4.7576C5.71734 4.73538 5.73613 4.71433 5.75626 4.6946C5.90946 4.54009 5.99542 4.33131 5.99542 4.11372C5.99542 3.89614 5.90946 3.68736 5.75626 3.53285C5.73288 3.50953 5.71132 3.48445 5.69176 3.45785L4.35451 1.71485C4.2034 1.57833 4.0069 1.50293 3.80326 1.50335V1.4996ZM16.923 9.4316C20.6655 3.92285 14.073 -2.6629 8.57026 1.07885C8.48727 1.13425 8.41618 1.20566 8.36114 1.28888C8.3061 1.37211 8.26822 1.46548 8.24972 1.56353C8.23121 1.66158 8.23246 1.76233 8.25339 1.85989C8.27431 1.95745 8.3145 2.04985 8.37158 2.13169C8.42867 2.21353 8.50151 2.28315 8.58584 2.33648C8.67017 2.38981 8.76429 2.42578 8.8627 2.44228C8.9611 2.45878 9.06181 2.45547 9.15892 2.43256C9.25604 2.40965 9.3476 2.36759 9.42826 2.30885C13.5338 -0.510401 18.5108 4.47185 15.693 8.57435C15.633 8.65493 15.5898 8.74676 15.5659 8.84436C15.5421 8.94197 15.5381 9.04337 15.5542 9.14255C15.5703 9.24172 15.6062 9.33665 15.6597 9.4217C15.7132 9.50674 15.7833 9.58017 15.8657 9.63762C15.9481 9.69507 16.0413 9.73537 16.1396 9.75613C16.2379 9.77689 16.3393 9.77769 16.438 9.75847C16.5366 9.73925 16.6303 9.70042 16.7137 9.64427C16.797 9.58812 16.8682 9.5158 16.923 9.4316ZM14.0295 8.03285C14.1701 7.89221 14.2491 7.70147 14.2491 7.5026C14.2491 7.30373 14.1701 7.113 14.0295 6.97235L12.75 5.6921V3.7496C12.75 3.55069 12.671 3.35992 12.5303 3.21927C12.3897 3.07862 12.1989 2.9996 12 2.9996C11.8011 2.9996 11.6103 3.07862 11.4697 3.21927C11.329 3.35992 11.25 3.55069 11.25 3.7496V5.9996C11.25 6.1985 11.3291 6.38923 11.4698 6.52985L12.9698 8.02985C13.1104 8.17045 13.3011 8.24944 13.5 8.24944C13.6989 8.24944 13.8896 8.17045 14.0303 8.02985L14.0295 8.03285Z" fill="#F04F32"/>
</g>
<defs>
<clipPath id="clip0_402_2332">
<rect width="18" height="18" fill="white"/>
</clipPath>
</defs>
</svg>
