<svg width="18" height="18" viewBox="0 0 18 18" fill="none" xmlns="http://www.w3.org/2000/svg">
<g clip-path="url(#clip0_444_3951)">
<path d="M11.1552 14.0303L9.81048 15.375L11.1552 16.7197L10.0947 17.7803L8.74998 16.4355L7.40523 17.7803L6.34473 16.7197L7.68948 15.375L6.34473 14.0303L7.40523 12.9697L8.74998 14.3145L10.0947 12.9697L11.1552 14.0303ZM17.1552 14.0303L16.0947 12.9697L14.75 14.3145L13.4052 12.9697L12.3447 14.0303L13.6895 15.375L12.3447 16.7197L13.4052 17.7803L14.75 16.4355L16.0947 17.7803L17.1552 16.7197L15.8105 15.375L17.1552 14.0303ZM4.09473 12.9697L2.74998 14.3145L1.40523 12.9697L0.344727 14.0303L1.68948 15.375L0.344727 16.7197L1.40523 17.7803L2.74998 16.4355L4.09473 17.7803L5.15523 16.7197L3.81048 15.375L5.15523 14.0303L4.09473 12.9697ZM4.24998 9V3.75H5.74998V3C5.74998 1.3455 7.09548 0 8.74998 0C10.4045 0 11.75 1.3455 11.75 3V3.75H13.25V9C13.25 10.2405 12.2405 11.25 11 11.25H6.49998C5.25948 11.25 4.24998 10.2405 4.24998 9ZM7.24998 3.75H10.25V3C10.25 2.17275 9.57723 1.5 8.74998 1.5C7.92273 1.5 7.24998 2.17275 7.24998 3V3.75ZM5.74998 9C5.74998 9.41325 6.08598 9.75 6.49998 9.75H11C11.414 9.75 11.75 9.41325 11.75 9V5.25H5.74998V9ZM9.49998 6.75H7.99998V8.25H9.49998V6.75Z" fill="#F04F32"/>
</g>
<defs>
<clipPath id="clip0_444_3951">
<rect width="18" height="18" fill="white"/>
</clipPath>
</defs>
</svg>
