<svg width="18" height="18" viewBox="0 0 18 18" fill="none" xmlns="http://www.w3.org/2000/svg">
<g clip-path="url(#clip0_444_3957)">
<path d="M12.5 18C12.3011 18 12.1103 17.921 11.9697 17.7803C11.829 17.6397 11.75 17.4489 11.75 17.25C11.75 15.8576 11.1969 14.5223 10.2123 13.5377C9.22774 12.5531 7.89239 12 6.5 12C5.10761 12 3.77226 12.5531 2.78769 13.5377C1.80312 14.5223 1.25 15.8576 1.25 17.25C1.25 17.4489 1.17098 17.6397 1.03033 17.7803C0.889678 17.921 0.698912 18 0.5 18C0.301088 18 0.110322 17.921 -0.0303301 17.7803C-0.170982 17.6397 -0.25 17.4489 -0.25 17.25C-0.25 15.4598 0.461159 13.7429 1.72703 12.477C2.9929 11.2112 4.70979 10.5 6.5 10.5C8.29021 10.5 10.0071 11.2112 11.273 12.477C12.5388 13.7429 13.25 15.4598 13.25 17.25C13.25 17.4489 13.171 17.6397 13.0303 17.7803C12.8897 17.921 12.6989 18 12.5 18ZM17 9.75H12.5C12.3011 9.75 12.1103 9.67098 11.9697 9.53033C11.829 9.38968 11.75 9.19891 11.75 9C11.75 8.80109 11.829 8.61032 11.9697 8.46967C12.1103 8.32902 12.3011 8.25 12.5 8.25H17C17.1989 8.25 17.3897 8.32902 17.5303 8.46967C17.671 8.61032 17.75 8.80109 17.75 9C17.75 9.19891 17.671 9.38968 17.5303 9.53033C17.3897 9.67098 17.1989 9.75 17 9.75ZM6.5 9C5.60998 9 4.73996 8.73608 3.99993 8.24162C3.25991 7.74715 2.68314 7.04434 2.34254 6.22208C2.00195 5.39981 1.91283 4.49501 2.08647 3.6221C2.2601 2.74918 2.68868 1.94736 3.31802 1.31802C3.94736 0.688685 4.74918 0.260102 5.62209 0.0864683C6.49501 -0.0871652 7.39981 0.00194979 8.22208 0.342544C9.04434 0.683138 9.74715 1.25991 10.2416 1.99994C10.7361 2.73996 11 3.60999 11 4.5C10.9988 5.69311 10.5243 6.83701 9.68067 7.68067C8.83701 8.52432 7.69311 8.99881 6.5 9ZM6.5 1.5C5.90666 1.5 5.32664 1.67595 4.83329 2.00559C4.33994 2.33524 3.95542 2.80377 3.72836 3.35195C3.5013 3.90013 3.44189 4.50333 3.55764 5.08527C3.6734 5.66722 3.95912 6.20177 4.37868 6.62132C4.79824 7.04088 5.33279 7.3266 5.91473 7.44236C6.49667 7.55811 7.09987 7.4987 7.64805 7.27164C8.19623 7.04458 8.66476 6.66006 8.99441 6.16671C9.32405 5.67337 9.5 5.09335 9.5 4.5C9.5 3.70435 9.18393 2.94129 8.62132 2.37868C8.05871 1.81607 7.29565 1.5 6.5 1.5Z" fill="#F04F32"/>
</g>
<defs>
<clipPath id="clip0_444_3957">
<rect width="18" height="18" fill="white"/>
</clipPath>
</defs>
</svg>
