<svg width="14" height="14" viewBox="0 0 14 14" fill="none" xmlns="http://www.w3.org/2000/svg">
<path d="M12.4026 7.69218L7.15313 12.8391C7.11224 12.8792 7.05726 12.9016 7 12.9016C6.94274 12.9016 6.88777 12.8792 6.84688 12.8391L1.59736 7.69218C1.05737 7.16189 0.684974 6.48473 0.526369 5.7447C0.367764 5.00468 0.429934 4.23438 0.705166 3.52937C0.948131 2.90071 1.35295 2.34746 1.87862 1.92566C2.40428 1.50385 3.03209 1.2285 3.69845 1.12749C4.94303 0.959732 6.10532 1.46163 7 2.54333C7.89561 1.45993 9.05752 0.958157 10.2972 1.12412C11.0042 1.23449 11.6667 1.53933 12.2105 2.00456C12.7542 2.46979 13.1579 3.07708 13.3763 3.75855C13.5948 4.44002 13.6194 5.16882 13.4475 5.86348C13.2755 6.55815 12.9138 7.1913 12.4026 7.69218Z" fill="#F04F32"/>
</svg>
