<svg width="18" height="18" viewBox="0 0 18 18" fill="none" xmlns="http://www.w3.org/2000/svg">
<g clip-path="url(#clip0_509_3721)">
<path d="M17.8224 4.94777L16.6397 5.91152L17.1287 7.40177C17.1954 7.60352 17.1279 7.82552 16.9592 7.95527C16.7904 8.08502 16.5587 8.09402 16.3809 7.97852L15.0039 7.08152L13.6502 7.98752C13.5662 8.04377 13.4687 8.07227 13.3719 8.07227C13.2662 8.07227 13.1604 8.03852 13.0719 7.97252C12.9017 7.84502 12.8312 7.62452 12.8949 7.42202L13.3652 5.91377L12.1764 4.94627C12.0167 4.81052 11.9582 4.58927 12.0309 4.39277C12.1029 4.19627 12.2904 4.06502 12.5004 4.06502H14.0012L14.5322 2.57477C14.6049 2.37902 14.7917 2.24927 15.0009 2.24927C15.2102 2.24927 15.3969 2.37902 15.4697 2.57477L16.0007 4.06502H17.5014C17.7114 4.06502 17.8989 4.19627 17.9709 4.39352C18.0429 4.59077 17.9829 4.81202 17.8224 4.94777ZM6.17716 2.69627L7.36591 3.66377L6.89566 5.17202C6.83191 5.37452 6.90316 5.59502 7.07266 5.72252C7.16116 5.78927 7.26691 5.82227 7.37266 5.82227C7.46941 5.82227 7.56616 5.79452 7.65091 5.73752L9.00466 4.83152L10.3817 5.72852C10.5594 5.84402 10.7912 5.83502 10.9599 5.70527C11.1287 5.57552 11.1962 5.35352 11.1294 5.15177L10.6404 3.66152L11.8232 2.69777C11.9837 2.56277 12.0429 2.34077 11.9709 2.14352C11.8989 1.94627 11.7114 1.81502 11.5014 1.81502H10.0007L9.46966 0.324768C9.39691 0.129018 9.21016 -0.000732422 9.00091 -0.000732422C8.79166 -0.000732422 8.60491 0.129018 8.53216 0.324768L8.00116 1.81502H6.50041C6.29041 1.81502 6.10366 1.94552 6.03091 2.14277C5.95816 2.33927 6.01666 2.56052 6.17641 2.69627H6.17716ZM4.38166 7.97777C4.55941 8.09327 4.79116 8.08427 4.95991 7.95452C5.12866 7.82477 5.19616 7.60277 5.12941 7.40102L4.64041 5.91077L5.82316 4.94702C5.98366 4.81202 6.04291 4.59002 5.97091 4.39277C5.89891 4.19552 5.71141 4.06427 5.50141 4.06427H4.00066L3.46966 2.57402C3.39691 2.37827 3.21016 2.24852 3.00091 2.24852C2.79166 2.24852 2.60491 2.37827 2.53216 2.57402L2.00116 4.06427H0.500414C0.290414 4.06427 0.103664 4.19477 0.0309142 4.39202C-0.0418358 4.58852 0.0166642 4.80977 0.176414 4.94552L1.36516 5.91302L0.894914 7.42127C0.831164 7.62377 0.902414 7.84427 1.07191 7.97177C1.16041 8.03852 1.26616 8.07152 1.37191 8.07152C1.46866 8.07152 1.56541 8.04377 1.65016 7.98677L3.00391 7.08077L4.38166 7.97777ZM14.9567 13.191L14.4774 15.588C14.1969 16.9905 12.9654 18 11.5359 18H5.25016C4.00741 18 3.00016 16.9928 3.00016 15.75V12.75C3.00016 11.5073 4.00741 10.5 5.25016 10.5H6.34216L7.98691 7.38827C8.12191 7.12427 8.30791 6.92777 8.49841 6.84902C8.65741 6.78302 8.81866 6.75002 8.97841 6.75002C9.48991 6.75002 9.91141 7.08452 10.0524 7.60202C10.0689 7.66202 10.0899 7.80077 10.0472 8.05127L9.61216 10.5H12.7494C14.1692 10.5 15.2349 11.799 14.9567 13.191ZM5.25091 16.5H6.00091V12H5.25091C4.83766 12 4.50091 12.3368 4.50091 12.75V15.75C4.50091 16.1633 4.83766 16.5 5.25091 16.5ZM13.3299 12.2745C13.2459 12.1718 13.0584 12 12.7502 12H7.50091V16.5H11.5352C12.2477 16.5 12.8664 15.993 13.0059 15.294L13.4852 12.897C13.5459 12.594 13.4139 12.3773 13.3299 12.2745Z" fill="#F04F32"/>
</g>
<defs>
<clipPath id="clip0_509_3721">
<rect width="18" height="18" fill="white"/>
</clipPath>
</defs>
</svg>
