<svg width="71" height="71" viewBox="0 0 71 71" fill="none" xmlns="http://www.w3.org/2000/svg">
<path d="M9.09687 17.6003C9.09687 17.6003 5.51913 17.8832 5.0421 18.6875C4.55952 19.4918 4.53179 20.7288 4.53179 22.0878C4.53179 23.4523 4.47632 26.5807 4.47632 26.5807L5.33054 28.4167C5.33054 28.4167 5.4914 51.819 5.4914 52.5457C5.4914 53.2668 5.4914 54.1487 6.53421 54.7089C7.57702 55.2692 34.08 68.0714 34.9065 68.4153C36.1545 68.9311 36.748 68.737 36.748 68.737L66.1964 19.4863C66.1964 19.4863 66.1021 18.1384 64.8762 17.8167C64.1718 17.6392 9.09687 17.6003 9.09687 17.6003Z" fill="#F5B03E"/>
<path d="M36.4318 33.7916C35.9825 35.0286 36.1878 47.8197 36.2654 57.1218C36.3431 66.4184 36.0269 68.3431 36.2654 68.6648C36.5039 68.9866 37.1529 68.6759 38.9889 67.8605C42.4003 66.3518 58.7857 58.2423 59.9894 57.5212C61.1931 56.8001 64.1329 55.308 64.6155 54.5037C65.0981 53.6994 65.3588 46.2166 65.5196 40.2094C65.6805 34.1966 65.8414 29.3874 65.8414 29.3874L66.5625 27.2241C66.5625 27.2241 66.4071 21.3777 66.3794 20.7343C66.3295 19.6693 66.213 19.1202 65.9412 19.2533C65.5529 19.4363 62.3135 22.0933 53.7381 26.2645C48.3521 28.8771 36.7425 32.9374 36.4318 33.7916Z" fill="#E07F14"/>
<path d="M36.5096 6.21795C34.1078 6.10702 27.5347 9.90663 21.2002 11.9867C14.8657 14.0668 5.30284 18.2491 5.21964 18.4932C5.14198 18.7317 9.06917 20.4901 11.5764 21.6937C14.555 23.1193 25.9261 28.5053 28.0062 29.3872C30.0918 30.2692 35.0618 32.3326 35.8606 32.2716C36.981 32.194 47.5645 28.0227 52.9339 25.4601C58.3032 22.8974 65.015 18.9258 65.1037 17.9607C65.1425 17.528 55.2303 13.8283 50.288 11.5929C40.7474 7.27186 38.2679 6.30116 36.5096 6.21795Z" fill="#FDD717"/>
<path d="M4.50409 27.6068C4.58729 28.6497 5.15862 29.0213 6.6119 29.6536C8.06519 30.286 35.5389 44.5581 36.1712 44.5581C36.8035 44.5581 36.9921 42.295 36.2988 42.356C35.9216 42.3893 26.8968 38.1015 18.4656 33.8193C11.3101 30.1917 4.45972 26.5696 4.45972 26.5696L4.50409 27.6068Z" fill="#E37D14"/>
<path d="M66.568 27.1741C66.568 27.1741 37.2306 42.0952 36.9422 42.2394C36.6537 42.3836 36.1933 42.3337 36.1933 42.3337L36.1711 44.558C36.1711 44.558 36.4429 44.619 36.748 44.5247C36.9255 44.4692 65.7193 29.5648 65.8469 29.5204C65.9745 29.476 66.5292 29.1432 66.6457 28.4388C66.7455 27.873 66.568 27.1741 66.568 27.1741Z" fill="#BA5E0D"/>
<path d="M16.0083 54.0376L21.7493 62.5798L24.262 63.4396C24.262 63.4396 24.4672 54.1208 24.5504 47.215C24.6669 37.1252 24.6226 27.923 24.7668 27.4015C25.0053 26.5196 36.1712 22.8975 36.1712 22.8975C36.1712 22.8975 48.7847 26.8524 49.1841 27.7344C49.3616 28.1226 49.2229 34.6569 49.1841 42.2727C49.1342 51.891 49.1508 62.9958 49.1508 62.9958C49.1508 62.9958 50.4544 62.9903 50.6097 62.5077C50.7705 62.0251 51.414 58.3032 51.414 58.3032L56.3063 25.6931L58.7913 22.487L55.3412 15.9195L41.1855 8.95264L36.3209 10.0454L31.0569 9.24107L14.3608 21.239L16.3078 25.1883L21.0837 27.6234L16.0083 54.0376Z" fill="#FF6633"/>
<path d="M50.6319 27.396C50.3268 28.0672 50.5043 62.6519 50.5043 62.6519C50.5043 62.6519 52.0297 61.8088 53.9933 60.8659C55.9458 59.9284 57.3492 59.346 57.4712 58.8579C57.5933 58.3698 57.8096 24.1677 57.8096 24.1677L50.6319 27.396Z" fill="#F04F32"/>
<path d="M22.9363 26.6805C23.1194 26.8802 22.8198 62.7684 22.4482 62.8516C22.1542 62.9238 15.4702 59.9395 15.4702 59.6345C15.4702 59.3294 16.0083 25.033 16.0083 25.033C16.0083 25.033 22.3927 26.0703 22.9363 26.6805ZM36.1823 7.9043C34.3351 7.9043 32.2939 8.43125 31.7004 9.97883C31.1069 11.5264 30.9737 13.8284 30.9737 15.5479C30.9737 17.1953 30.7075 21.4109 35.7829 21.3444C40.8583 21.2778 41.008 19.3974 41.0857 15.2484C41.1522 11.7871 40.6919 10.1064 40.2315 9.38531C39.821 8.73633 38.4565 7.9043 36.1823 7.9043Z" fill="#F04F32"/>
<path d="M33.248 16.4687C34.4017 16.5352 34.8954 14.0003 35.7829 12.6136C36.6704 11.2324 37.5967 10.3061 37.2639 9.58501C36.9921 8.98594 34.5792 8.7918 33.2757 10.6056C32.3605 11.887 32.1996 16.4077 33.248 16.4687Z" fill="#FCC9D2"/>
<path d="M40.6753 9.10794C40.6753 9.10794 42.3116 10.772 42.7387 14.0336C43.1658 17.2951 42.6722 19.83 42.6722 19.83C42.6722 19.83 50.8039 19.586 53.6106 20.124C56.3785 20.6621 57.3436 21.8824 57.3436 22.7699C57.3436 23.6574 55.5243 24.3729 53.6772 24.2398C51.8301 24.1067 50.582 24.0068 50.349 24.4728C50.1161 24.9387 50.4489 25.6598 53.0171 25.854C55.5853 26.0536 58.5529 25.6875 59.4737 22.4925C60.3944 19.2975 60.4277 13.7618 60.1004 9.77356C59.7732 5.78536 59.0521 3.50559 57.266 2.64028C55.3856 1.73614 50.6763 1.58637 46.2277 4.08802C41.7791 6.58966 40.6753 9.10794 40.6753 9.10794Z" fill="#F04F32"/>
<path d="M49.8886 5.31394C49.3117 4.57066 47.4535 4.59285 46.4606 5.74105C45.4067 6.96136 45.1738 11.6041 46.5272 11.8703C48.0581 12.1699 47.7808 9.66269 48.9013 8.11511C49.9995 6.60081 50.4488 6.04058 49.8886 5.31394Z" fill="#FCC9D2"/>
<path d="M31.2733 9.26886C31.2733 9.26886 25.0442 2.008 17.9276 2.11893C13.6454 2.1855 12.5582 4.65386 12.3252 5.67448C12.0922 6.69511 10.3172 16.8459 12.6858 22.3428C15.0543 27.8398 19.9688 26.4142 20.7398 26.2367C21.7272 26.0038 23.8294 25.2827 23.6297 24.5228C23.4301 23.7628 16.4465 26.4974 16.38 23.369C16.3134 20.2406 21.3222 19.9078 23.6297 19.8412C25.9372 19.7746 29.8922 20.3016 29.8922 20.3016C29.8922 20.3016 29.1988 16.5131 29.6592 13.8117C30.1196 11.1104 31.2733 9.26886 31.2733 9.26886Z" fill="#F04F32"/>
<path d="M16.0194 4.75375C15.1319 5.67454 14.7658 10.9829 15.326 13.6177C15.8863 16.2524 16.38 17.3729 17.5337 17.1455C18.4989 16.9513 19.0813 11.7816 19.5417 9.96227C20.0353 8.02086 21.2557 5.95743 20.762 5.05329C20.0076 3.66657 16.9457 3.79414 16.0194 4.75375Z" fill="#FCC9D2"/>
</svg>
