<svg width="22" height="22" viewBox="0 0 22 22" fill="none" xmlns="http://www.w3.org/2000/svg">
<mask id="mask0_379_4432" style="mask-type:alpha" maskUnits="userSpaceOnUse" x="0" y="0" width="22" height="22">
<rect x="0.611111" y="0.611111" width="20.7778" height="20.7778" fill="white" stroke="white" stroke-width="1.22222"/>
</mask>
<g mask="url(#mask0_379_4432)">
<path d="M7.4483 12.8335C7.85534 14.415 9.29093 15.5835 10.9995 15.5835C12.708 15.5835 14.1436 14.415 14.5506 12.8335M10.099 2.53385L3.88189 7.36938C3.4663 7.69262 3.25851 7.85423 3.10881 8.05664C2.9762 8.23592 2.87742 8.4379 2.81731 8.65265C2.74945 8.89508 2.74945 9.15832 2.74945 9.68481V16.3168C2.74945 17.3436 2.74945 17.857 2.94927 18.2492C3.12504 18.5941 3.4055 18.8746 3.75047 19.0503C4.14264 19.2502 4.65602 19.2502 5.68278 19.2502H16.3161C17.3429 19.2502 17.8563 19.2502 18.2484 19.0503C18.5934 18.8746 18.8739 18.5941 19.0496 18.2492C19.2495 17.857 19.2495 17.3436 19.2495 16.3168V9.68481C19.2495 9.15832 19.2495 8.89508 19.1816 8.65265C19.1215 8.4379 19.0227 8.23592 18.8901 8.05664C18.7404 7.85423 18.5326 7.69262 18.117 7.36938L11.8999 2.53385C11.5778 2.28337 11.4168 2.15813 11.239 2.10998C11.0821 2.06751 10.9168 2.06751 10.7599 2.10998C10.5821 2.15813 10.4211 2.28337 10.099 2.53385Z" stroke="white" stroke-width="1.8" stroke-linecap="round" stroke-linejoin="round"/>
</g>
</svg>
