<svg width="144" height="55" viewBox="0 0 144 55" fill="none" xmlns="http://www.w3.org/2000/svg">
<path d="M126.585 35.2077H114.705L116.128 40.0484H129.029C130.379 40.0484 131.47 38.9656 131.47 37.626V17.6056C131.47 16.2701 130.379 15.1832 129.029 15.1832H108.834L110.257 20.0279H126.589V35.2077H126.585Z" fill="#F04F32"/>
<path d="M79.5762 5.7666L81.0712 10.6073H89.1241L97.6902 38.34C98.0053 39.3586 98.9508 40.0485 100.022 40.0485H112.354L110.931 35.2078H101.824L93.2536 7.47508C92.9384 6.45641 91.9929 5.7666 90.9222 5.7666H79.5762Z" fill="#F04F32"/>
<path d="M107.824 44.2595C107.848 42.4989 106.495 41.2115 104.878 41.1754C103.121 41.1353 101.783 42.4628 101.767 44.1392C101.751 45.8838 103.101 47.1391 104.773 47.1952C106.349 47.2434 107.824 45.8477 107.824 44.2595Z" fill="#F04F32"/>
<path d="M127.704 44.2595C127.728 42.4989 126.374 41.2115 124.758 41.1754C123 41.1353 121.663 42.4628 121.647 44.1392C121.631 45.8838 122.98 47.1391 124.653 47.1952C126.229 47.2434 127.704 45.8477 127.704 44.2595Z" fill="#F04F32"/>
<path d="M20.5753 46.0843C19.8076 45.6672 19.2096 45.0937 18.7813 44.3638C18.3489 43.6339 18.1348 42.8157 18.1348 41.9093C18.1348 40.999 18.3489 40.1808 18.7813 39.4549C19.2096 38.725 19.8116 38.1515 20.5753 37.7344C21.339 37.3173 22.1956 37.1088 23.137 37.1088C24.0785 37.1088 24.927 37.3173 25.6866 37.7304C26.4422 38.1435 27.0402 38.717 27.4726 39.4509C27.909 40.1848 28.1231 41.003 28.1231 41.9133C28.1231 42.8237 27.9049 43.6419 27.4726 44.3758C27.0362 45.1097 26.4422 45.6832 25.6866 46.0963C24.9311 46.5094 24.0785 46.7179 23.137 46.7179C22.1956 46.7099 21.339 46.5014 20.5753 46.0843ZM25.1735 45.3143C25.7796 44.9774 26.2564 44.5082 26.5998 43.9106C26.9433 43.313 27.117 42.6433 27.117 41.9053C27.117 41.1674 26.9433 40.5017 26.5998 39.9001C26.2564 39.3025 25.7796 38.8333 25.1735 38.4964C24.5674 38.1595 23.8845 37.9911 23.133 37.9911C22.3814 37.9911 21.6986 38.1595 21.0884 38.4964C20.4783 38.8333 19.9975 39.3025 19.646 39.9001C19.2985 40.4976 19.1247 41.1674 19.1247 41.9053C19.1247 42.6433 19.2985 43.309 19.646 43.9106C19.9934 44.5122 20.4743 44.9774 21.0884 45.3143C21.6986 45.6512 22.3814 45.8196 23.133 45.8196C23.8886 45.8196 24.5674 45.6512 25.1735 45.3143Z" fill="#0C2031"/>
<path d="M33.1819 38.0472V41.7569H38.1033V42.6192H33.1819V46.6257H32.1758V37.1809H38.7014V38.0432H33.1819V38.0472Z" fill="#0C2031"/>
<path d="M44.8472 38.0472V41.7569H49.7686V42.6192H44.8472V46.6257H43.8411V37.1809H50.3666V38.0432H44.8472V38.0472Z" fill="#0C2031"/>
<path d="M62.2339 45.7634V46.6257H55.5063V37.1809H62.0319V38.0432H56.5125V41.404H61.4339V42.2542H56.5125V45.7634H62.2339Z" fill="#0C2031"/>
<path d="M74.1578 46.6297L71.984 43.5937C71.7375 43.6218 71.487 43.6338 71.2243 43.6338H68.6707V46.6297H67.6646V37.1849H71.2243C72.4405 37.1849 73.3901 37.4737 74.081 38.0472C74.7679 38.6247 75.1154 39.4148 75.1154 40.4214C75.1154 41.1593 74.9255 41.781 74.5497 42.2903C74.174 42.7996 73.6365 43.1646 72.9375 43.3892L75.2609 46.6257H74.1578V46.6297ZM73.3537 42.162C73.8507 41.7489 74.1012 41.1674 74.1012 40.4214C74.1012 39.6554 73.8507 39.0699 73.3537 38.6608C72.8567 38.2517 72.1334 38.0472 71.192 38.0472H68.6626V42.7836H71.192C72.1334 42.7836 72.8567 42.5751 73.3537 42.162Z" fill="#0C2031"/>
<path d="M81.1359 46.373C80.4894 46.1484 79.9884 45.8516 79.6328 45.4827L80.0288 44.7127C80.3722 45.0536 80.8288 45.3303 81.4026 45.5428C81.9723 45.7554 82.5622 45.8597 83.1683 45.8597C84.0209 45.8597 84.6593 45.7033 85.0836 45.3945C85.5078 45.0856 85.722 44.6806 85.722 44.1873C85.722 43.8103 85.6048 43.5095 85.3745 43.2809C85.1442 43.0563 84.8613 42.8839 84.526 42.7635C84.1906 42.6432 83.7219 42.5109 83.1239 42.3665C82.4087 42.186 81.8349 42.0136 81.4107 41.8451C80.9864 41.6807 80.6187 41.424 80.3157 41.0832C80.0126 40.7423 79.8591 40.277 79.8591 39.6915C79.8591 39.2143 79.9843 38.7811 80.2389 38.3881C80.4935 37.9951 80.8814 37.6862 81.4066 37.4496C81.9319 37.217 82.5865 37.1007 83.3623 37.1007C83.9078 37.1007 84.4371 37.1729 84.9583 37.3213C85.4796 37.4697 85.9321 37.6742 86.3119 37.9349L85.9725 38.729C85.5725 38.4683 85.1482 38.2718 84.6957 38.1434C84.2431 38.0151 83.7987 37.9469 83.3623 37.9469C82.5299 37.9469 81.8996 38.1074 81.4794 38.4242C81.0591 38.745 80.849 39.1541 80.849 39.6594C80.849 40.0364 80.9662 40.3412 81.1965 40.5698C81.4268 40.7984 81.7178 40.9749 82.0652 41.0952C82.4127 41.2155 82.8815 41.3478 83.4714 41.4922C84.1704 41.6647 84.732 41.8331 85.1644 41.9976C85.5967 42.162 85.9604 42.4146 86.2594 42.7515C86.5584 43.0884 86.7079 43.5456 86.7079 44.1191C86.7079 44.5964 86.5786 45.0295 86.32 45.4225C86.0614 45.8155 85.6654 46.1244 85.1321 46.353C84.5987 46.5816 83.9401 46.6979 83.1603 46.6979C82.4612 46.7099 81.7865 46.5976 81.1359 46.373Z" fill="#0C2031"/>
<path d="M10.5668 14.7101H14.8094V32.2641C14.8094 36.3709 13.6942 38.6649 8.3606 38.6649V34.4538C9.61318 34.4538 10.5627 33.7801 10.5627 32.2681V14.7101H10.5668Z" fill="#F04F32"/>
<path d="M29.909 25.2698C29.9373 29.1038 26.8341 32.236 22.9713 32.2641C19.0802 32.2922 15.9245 29.184 15.9245 25.35C15.8962 21.5159 18.9994 18.3837 22.8905 18.3557C26.7533 18.3276 29.909 21.4357 29.909 25.2698ZM26.3735 25.2979C26.3735 24.3794 25.9937 23.5172 25.3391 22.8675C24.6845 22.2459 23.8158 21.8969 22.8905 21.8969C21.9652 21.8969 21.1207 22.2499 20.4702 22.8956C19.8156 23.5693 19.4641 24.4075 19.4641 25.3259C19.4641 26.2443 19.8439 27.1066 20.4985 27.7563C21.153 28.406 22.0218 28.7549 22.9471 28.7549C23.8724 28.7268 24.7411 28.3779 25.3674 27.7282C26.0179 27.0785 26.3735 26.2163 26.3735 25.2979Z" fill="#F04F32"/>
<path d="M39.5661 18.115V21.9771C36.6286 21.9771 34.8305 24.3273 34.8305 26.1079V32.2641H31.0203V26.1079V18.3556H34.8305V20.4331C35.4609 18.7085 36.7377 18.115 39.5661 18.115Z" fill="#F04F32"/>
<path d="M51.7565 32.2641V30.6719C50.5605 31.6424 49.0089 32.2641 47.3199 32.2641C43.4571 32.2921 40.3014 29.184 40.2731 25.3499C40.2449 21.5159 43.3763 18.3837 47.2391 18.3556C48.9523 18.3556 50.5039 18.9492 51.7282 19.9478V13.4106H55.5385L55.5668 32.2601H51.7565V32.2641ZM50.7504 25.2978C50.7221 24.3794 50.3706 23.5171 49.716 22.8674C49.0614 22.2458 48.1927 21.8969 47.2674 21.8969C46.3421 21.8969 45.4734 22.2498 44.8188 22.8955C44.1925 23.5693 43.8127 24.4075 43.841 25.3259C43.841 26.2443 44.1966 27.1065 44.8471 27.7562C45.5017 28.4059 46.3704 28.7549 47.2957 28.7549C48.221 28.7268 49.0897 28.3779 49.7443 27.7282C50.3948 27.0785 50.7504 26.2162 50.7504 25.2978Z" fill="#F04F32"/>
<path d="M71.0747 18.3034V32.264H67.2644V30.6959C66.4199 31.7748 65.0057 32.2079 63.7289 32.2079C59.8661 32.236 56.7104 29.1278 56.6821 25.2938C56.6538 21.4597 59.7853 18.3275 63.6481 18.2994C64.9815 18.2994 66.4239 18.7847 67.2684 19.8395V18.2994H71.0747V18.3034ZM67.127 25.2416C67.127 24.3232 66.7755 23.461 66.0926 22.8113C65.438 22.1616 64.5693 21.8126 63.6723 21.8407C62.747 21.8407 61.8783 22.1936 61.2237 22.8393C60.5691 23.489 60.2176 24.3513 60.2176 25.2697C60.2176 26.1881 60.5974 27.0504 61.252 27.7001C61.9066 28.3498 62.7753 28.6987 63.7006 28.6987C64.6259 28.6706 65.4946 28.3217 66.1209 27.672C66.7755 27.0263 67.127 26.16 67.127 25.2416Z" fill="#F04F32"/>
<path d="M86.7159 25.3219C86.7159 25.4301 86.7159 25.5384 86.7159 25.6467V32.2641H83.1804V31.3978V25.4021H83.1521C83.1521 25.374 83.1521 25.3499 83.1521 25.3499C83.1521 24.4315 82.7965 23.5693 82.146 22.9196C81.4954 22.2699 80.6227 21.9209 79.6974 21.9209C78.7721 21.949 77.9033 22.2979 77.2488 22.9476C76.5942 23.5973 76.2427 24.4596 76.2709 25.378V25.4061H76.2427V32.2641H72.4324V18.3035H76.2427V20.1122C77.3861 18.7607 78.4205 18.52 79.6691 18.4118C83.5077 18.0869 86.7159 20.5453 86.7159 25.3219Z" fill="#F04F32"/>
</svg>
