<svg width="61" height="49" viewBox="0 0 61 49" fill="none" xmlns="http://www.w3.org/2000/svg">
<path d="M55.1358 34.8252H41.2416L42.9028 40.5525H57.9882C59.5646 40.5525 60.8405 39.2715 60.8405 37.6888V14.006C60.8405 12.4269 59.5646 11.1423 57.9882 11.1423H34.374L36.0353 16.8732H55.1358V34.8252Z" fill="#F04F32"/>
<path d="M0.159668 0L1.90925 5.72732H11.3252L21.3421 38.5299C21.7096 39.7328 22.816 40.5525 24.0707 40.5525H38.4916L36.8303 34.8252H26.1808L16.1604 2.02266C15.7929 0.819708 14.6865 0 13.4318 0H0.159668Z" fill="#F04F32"/>
<path d="M33.197 45.531C33.2288 43.448 31.6418 41.9257 29.7544 41.8796C27.6973 41.8299 26.135 43.4019 26.1173 45.3855C26.0997 47.4507 27.6761 48.934 29.6307 48.9979C31.4721 49.0653 33.197 47.4117 33.197 45.531Z" fill="#F04F32"/>
<path d="M56.4436 45.531C56.4754 43.448 54.8884 41.9257 53.0009 41.8796C50.9439 41.8299 49.3816 43.4019 49.3639 45.3855C49.3462 47.4507 50.9226 48.934 52.8772 48.9979C54.7187 49.0653 56.4436 47.4117 56.4436 45.531Z" fill="#F04F32"/>
</svg>
