<svg width="18" height="18" viewBox="0 0 18 18" fill="none" xmlns="http://www.w3.org/2000/svg">
<g clip-path="url(#clip0_402_2359)">
<path d="M17.0724 7.67454L13.3599 3.96204L12.3001 5.02554L15.5251 8.25054H4.96289V9.75054H15.5251L12.3001 12.9755L13.3606 14.036L17.0731 10.3235C17.2473 10.1494 17.3855 9.9427 17.4797 9.71518C17.574 9.48766 17.6225 9.24381 17.6225 8.99754C17.6225 8.75127 17.574 8.50741 17.4797 8.27989C17.3855 8.05237 17.2473 7.84565 17.0731 7.67154L17.0724 7.67454Z" fill="#EB0000"/>
<path d="M7.857 15.7501C7.857 15.949 7.77798 16.1398 7.63733 16.2805C7.49668 16.4211 7.30591 16.5001 7.107 16.5001H2.25C2.05109 16.5001 1.86032 16.4211 1.71967 16.2805C1.57902 16.1398 1.5 15.949 1.5 15.7501V2.25012C1.5 2.05121 1.57902 1.86044 1.71967 1.71979C1.86032 1.57914 2.05109 1.50012 2.25 1.50012H7.107C7.30591 1.50012 7.49668 1.57914 7.63733 1.71979C7.77798 1.86044 7.857 2.05121 7.857 2.25012V6.24987H9.357V2.25012C9.357 1.65338 9.11995 1.08109 8.69799 0.659132C8.27603 0.237175 7.70374 0.00012207 7.107 0.00012207L2.25 0.00012207C1.65326 0.00012207 1.08097 0.237175 0.65901 0.659132C0.237053 1.08109 0 1.65338 0 2.25012L0 15.7501C0 16.3469 0.237053 16.9192 0.65901 17.3411C1.08097 17.7631 1.65326 18.0001 2.25 18.0001H7.107C7.70374 18.0001 8.27603 17.7631 8.69799 17.3411C9.11995 16.9192 9.357 16.3469 9.357 15.7501V11.7504H7.857V15.7501Z" fill="#EB0000"/>
</g>
<defs>
<clipPath id="clip0_402_2359">
<rect width="18" height="18" fill="white"/>
</clipPath>
</defs>
</svg>
