<svg width="20" height="20" viewBox="0 0 20 20" fill="none" xmlns="http://www.w3.org/2000/svg">
<g clip-path="url(#clip0_75_1189)">
<path d="M10 3.33348C11.5583 3.33348 13.0225 3.94014 14.1242 5.04181L12.9458 6.22014C12.1592 5.43348 11.1125 5.00014 10 5.00014C8.8875 5.00014 7.84083 5.43348 7.05417 6.22014L5.87583 5.04181C6.9775 3.94014 8.44167 3.33348 10 3.33348ZM15.3033 3.86348L16.4817 2.68514C12.9075 -0.889025 7.0925 -0.889025 3.51833 2.68514L4.69667 3.86348C7.62167 0.939308 12.3783 0.939308 15.3033 3.86348ZM20 10.8335V20.0001H0V10.8335C0 9.45514 1.12167 8.33348 2.5 8.33348H17.5C18.8783 8.33348 20 9.45514 20 10.8335ZM18.3333 10.8335C18.3333 10.3743 17.96 10.0001 17.5 10.0001H2.5C2.04 10.0001 1.66667 10.3743 1.66667 10.8335V18.3335H18.3333V10.8335ZM4.16667 10.8335H2.5V17.5001H5V15.8335H4.16667V10.8335ZM14.1667 17.5001H17.5V15.8335H15.8333V15.0001H17.5V13.3335H15.8333V12.5001H17.5V10.8335H14.1667V17.5001ZM5.83333 17.5001H7.5V10.8335H5.83333V17.5001ZM11.6667 11.1335L10.8333 14.0501L10 11.1335V10.8335H8.33333V11.2501L10.0958 17.5001H11.5817L13.3025 11.4793L13.3342 10.8335H11.6675V11.1335H11.6667Z" fill="#F04F32"/>
</g>
<defs>
<clipPath id="clip0_75_1189">
<rect width="20" height="20" fill="white"/>
</clipPath>
</defs>
</svg>
