<svg width="34" height="34" viewBox="0 0 34 34" fill="none" xmlns="http://www.w3.org/2000/svg">
<rect x="0.15" y="0.15" width="33.7" height="33.7" rx="16.85" fill="white"/>
<rect x="0.15" y="0.15" width="33.7" height="33.7" rx="16.85" stroke="#F04F32" stroke-width="0.3"/>
<g clip-path="url(#clip0_75_1029)">
<path d="M25.2941 21.0224C25.0104 20.8665 24.6542 20.9702 24.4984 21.2538C24.3426 21.5374 24.4462 21.8937 24.7298 22.0494C25.4278 22.4329 25.8281 22.858 25.8281 23.2157C25.8281 23.6532 25.2082 24.3314 23.4682 24.9225C21.7493 25.5065 19.4521 25.8282 17 25.8282C14.5479 25.8282 12.2507 25.5065 10.5318 24.9225C8.7918 24.3314 8.17188 23.6532 8.17188 23.2157C8.17188 22.858 8.57219 22.4329 9.27016 22.0494C9.55379 21.8936 9.65738 21.5374 9.50156 21.2537C9.34574 20.9701 8.98961 20.8665 8.7059 21.0223C7.9277 21.4499 7 22.1774 7 23.2157C7 24.0115 7.54734 25.1462 10.1548 26.0321C11.992 26.6563 14.423 27 17 27C19.577 27 22.008 26.6563 23.8452 26.0321C26.4527 25.1462 27 24.0115 27 23.2157C27 22.1774 26.0723 21.4499 25.2941 21.0224Z" fill="#F04F32"/>
<path d="M12.5762 24.0753C13.7657 24.4114 15.3367 24.5964 17 24.5964C18.6632 24.5964 20.2343 24.4114 21.4237 24.0753C22.8789 23.6643 23.6168 23.0692 23.6168 22.3068C23.6168 21.5443 22.8789 20.9493 21.4237 20.5383C21.1007 20.447 20.7494 20.367 20.3758 20.2987C20.173 20.6492 19.9604 21.0099 19.7382 21.381C20.1517 21.4431 20.5398 21.5191 20.8923 21.6089C21.9633 21.8817 22.3545 22.1888 22.4349 22.3068C22.3545 22.4249 21.9633 22.732 20.8924 23.0047C19.8787 23.2629 18.5746 23.4102 17.201 23.4233C17.1345 23.4282 17.0675 23.431 17 23.431C16.9324 23.431 16.8654 23.4282 16.7989 23.4233C15.4253 23.4102 14.1212 23.2629 13.1076 23.0047C12.0366 22.732 11.6454 22.4249 11.565 22.3068C11.6454 22.1888 12.0367 21.8817 13.1076 21.6089C13.4601 21.5192 13.8483 21.4431 14.2617 21.381C14.0395 21.01 13.827 20.6491 13.6241 20.2987C13.2506 20.367 12.8992 20.447 12.5762 20.5383C11.121 20.9493 10.3832 21.5444 10.3832 22.3068C10.3832 23.0692 11.121 23.6643 12.5762 24.0753Z" fill="#F04F32"/>
<path d="M17 22.2591C17.5216 22.2591 17.9954 21.9934 18.2675 21.5482C20.1741 18.4288 22.4469 14.3176 22.4469 12.4468C22.4469 9.44344 20.0034 7 17 7C13.9965 7 11.5531 9.44344 11.5531 12.4468C11.5531 14.3176 13.8259 18.4288 15.7325 21.5482C16.0046 21.9934 16.4784 22.2591 17 22.2591ZM14.8106 12.0729C14.8106 10.8657 15.7928 9.88359 17 9.88359C18.2072 9.88359 19.1893 10.8657 19.1893 12.0729C19.1893 13.28 18.2072 14.2621 17 14.2621C15.7928 14.2621 14.8106 13.2801 14.8106 12.0729Z" fill="#F04F32"/>
</g>
<defs>
<clipPath id="clip0_75_1029">
<rect width="20" height="20" fill="white" transform="translate(7 7)"/>
</clipPath>
</defs>
</svg>
