<svg width="22" height="22" viewBox="0 0 22 22" fill="none" xmlns="http://www.w3.org/2000/svg">
<path d="M1.8335 6.41663L9.31801 11.6558C9.92408 12.08 10.2271 12.2922 10.5567 12.3743C10.8479 12.4469 11.1524 12.4469 11.4436 12.3743C11.7732 12.2922 12.0762 12.08 12.6823 11.6558L20.1668 6.41663M6.2335 18.3333H15.7668C17.307 18.3333 18.077 18.3333 18.6653 18.0336C19.1827 17.7699 19.6034 17.3492 19.8671 16.8318C20.1668 16.2435 20.1668 15.4734 20.1668 13.9333V8.06663C20.1668 6.52648 20.1668 5.75641 19.8671 5.16815C19.6034 4.65071 19.1827 4.23001 18.6653 3.96636C18.077 3.66663 17.307 3.66663 15.7668 3.66663H6.2335C4.69335 3.66663 3.92328 3.66663 3.33502 3.96636C2.81758 4.23001 2.39688 4.65071 2.13323 5.16815C1.8335 5.75641 1.8335 6.52648 1.8335 8.06663V13.9333C1.8335 15.4734 1.8335 16.2435 2.13323 16.8318C2.39688 17.3492 2.81758 17.7699 3.33502 18.0336C3.92328 18.3333 4.69335 18.3333 6.2335 18.3333Z" stroke="#F04F32" stroke-width="1.5" stroke-linecap="round" stroke-linejoin="round"/>
</svg>
