<svg width="18" height="18" viewBox="0 0 18 18" fill="none" xmlns="http://www.w3.org/2000/svg">
<g clip-path="url(#clip0_402_2299)">
<path d="M15.0002 6C16.6547 6 18.0002 4.6545 18.0002 3C18.0002 1.3455 16.6547 0 15.0002 0C13.3457 0 12.0002 1.3455 12.0002 3C12.0002 4.6545 13.3457 6 15.0002 6ZM15.0002 1.5C15.8274 1.5 16.5002 2.17275 16.5002 3C16.5002 3.82725 15.8274 4.5 15.0002 4.5C14.1729 4.5 13.5002 3.82725 13.5002 3C13.5002 2.17275 14.1729 1.5 15.0002 1.5ZM17.4542 12.1852L17.4504 12.171V12.1702L16.2707 7.3155C15.8672 7.434 15.4419 7.50075 15.0002 7.50075C14.9222 7.50075 14.8464 7.49325 14.7692 7.48875L15.9969 12.54C15.9984 12.5452 16.0022 12.549 16.0029 12.555H15.9999C16.0614 12.786 16.0157 13.0163 15.8732 13.2045C15.7292 13.3958 15.5162 13.5007 15.2762 13.5007H2.61993C2.39118 13.5007 2.17818 13.398 2.03643 13.2225C1.89243 13.0425 1.83843 12.8115 1.88118 12.6135L3.64518 5.77575C4.20468 3.25875 6.40668 1.50075 9.00018 1.50075C9.57993 1.50075 10.1424 1.59975 10.6742 1.7715C10.8152 1.27575 11.0372 0.81525 11.3282 0.40575C10.5939 0.14475 9.80943 0.0015 9.00018 0.0015C5.69868 0 2.89443 2.241 2.18718 5.42475L0.423181 12.264C0.275431 12.9315 0.436681 13.6222 0.866431 14.16C1.29618 14.694 1.93593 15 2.61993 15H5.32593C5.67468 16.7092 7.18893 18 9.00018 18C10.8114 18 12.3257 16.7092 12.6744 15H15.2769C15.9872 15 16.6397 14.6752 17.0694 14.1105C17.4864 13.5607 17.6237 12.8655 17.4549 12.198C17.4542 12.1935 17.4549 12.1897 17.4549 12.1852H17.4542ZM9.00018 16.5C8.02368 16.5 7.19868 15.8708 6.88818 15H11.1114C10.8009 15.8708 9.97593 16.5 8.99943 16.5H9.00018Z" fill="#F04F32"/>
</g>
<defs>
<clipPath id="clip0_402_2299">
<rect width="18" height="18" fill="white"/>
</clipPath>
</defs>
</svg>
