<svg width="17" height="20" viewBox="0 0 17 20" fill="none" xmlns="http://www.w3.org/2000/svg">
<path d="M1.9468 14.9049H14.1006C14.6152 14.9042 15.1086 14.6928 15.4722 14.3172C15.8359 13.9416 16.0403 13.4326 16.0404 12.9018C16.0405 12.3709 15.8363 11.8618 15.4728 11.486C14.8984 10.8963 14.4431 10.1948 14.1331 9.4224C13.8232 8.64995 13.6647 7.82188 13.6669 6.98593V6.46509C13.6878 4.94992 13.1412 3.48463 12.1409 2.37491C11.1406 1.26493 9.76361 0.595797 8.29703 0.50683C7.27595 0.455773 6.26069 0.691713 5.35957 1.18951C4.45839 1.68732 3.70531 2.42824 3.18061 3.33312C2.65591 4.23808 2.37949 5.27299 2.38066 6.32737V6.98603C2.38249 7.82219 2.22355 8.65047 1.91309 9.42291C1.60263 10.1954 1.14677 10.8966 0.571873 11.4861C0.206028 11.8614 0.000272569 12.3715 3.06948e-07 12.9035C-0.000289726 13.4356 0.204969 13.9459 0.570339 14.3214C0.935715 14.6971 1.43111 14.9071 1.94702 14.905L1.9468 14.9049ZM1.83397 12.788C2.57467 12.0277 3.16191 11.1234 3.56162 10.1276C3.9613 9.13173 4.16559 8.06392 4.1625 6.98611V6.32744C4.1625 5.2712 4.56936 4.25823 5.2934 3.51139C6.01744 2.76455 6.99959 2.34496 8.02369 2.34496H8.21377C10.2364 2.44907 11.8849 4.29639 11.8849 6.46527V6.98611C11.8817 8.064 12.0858 9.13181 12.4855 10.1279C12.8852 11.1238 13.4725 12.0281 14.2134 12.7882C14.2568 12.8358 14.2691 12.9052 14.2446 12.9654C14.2202 13.0257 14.1638 13.0655 14.1006 13.0671H1.94678C1.88355 13.0655 1.82709 13.0257 1.80273 12.9654C1.77826 12.9052 1.79054 12.8358 1.83395 12.7882L1.83397 12.788Z" fill="black"/>
<path d="M5.64758 17.662H10.3998V19.5H5.64758V17.662Z" fill="black"/>
</svg>
