<svg width="22" height="22" viewBox="0 0 22 22" fill="none" xmlns="http://www.w3.org/2000/svg">
<path d="M11.0002 16.0417H11.0093M7.51683 20.1667H14.4835C15.5103 20.1667 16.0236 20.1667 16.4158 19.9669C16.7608 19.7911 17.0412 19.5107 17.217 19.1657C17.4168 18.7735 17.4168 18.2601 17.4168 17.2334V4.76671C17.4168 3.73994 17.4168 3.22656 17.217 2.83439C17.0412 2.48943 16.7608 2.20896 16.4158 2.0332C16.0236 1.83337 15.5103 1.83337 14.4835 1.83337H7.51683C6.49007 1.83337 5.97669 1.83337 5.58451 2.0332C5.23955 2.20896 4.95909 2.48943 4.78332 2.83439C4.5835 3.22656 4.5835 3.73994 4.5835 4.76671V17.2334C4.5835 18.2601 4.5835 18.7735 4.78332 19.1657C4.95909 19.5107 5.23955 19.7911 5.58451 19.9669C5.97669 20.1667 6.49007 20.1667 7.51683 20.1667ZM11.4585 16.0417C11.4585 16.2948 11.2533 16.5 11.0002 16.5C10.747 16.5 10.5418 16.2948 10.5418 16.0417C10.5418 15.7886 10.747 15.5834 11.0002 15.5834C11.2533 15.5834 11.4585 15.7886 11.4585 16.0417Z" stroke="#F04F32" stroke-width="1.5" stroke-linecap="round" stroke-linejoin="round"/>
</svg>
