<svg width="18" height="18" viewBox="0 0 18 18" fill="none" xmlns="http://www.w3.org/2000/svg">
<g clip-path="url(#clip0_402_2320)">
<path d="M4.125 5.25C5.5725 5.25 6.75 4.0725 6.75 2.625C6.75 1.1775 5.5725 0 4.125 0C2.6775 0 1.5 1.1775 1.5 2.625C1.5 4.0725 2.6775 5.25 4.125 5.25ZM4.125 1.5C4.74525 1.5 5.25 2.00475 5.25 2.625C5.25 3.24525 4.74525 3.75 4.125 3.75C3.50475 3.75 3 3.24525 3 2.625C3 2.00475 3.50475 1.5 4.125 1.5ZM13.125 12.75C14.9858 12.75 16.5 11.2357 16.5 9.375C16.5 7.51425 14.9858 6 13.125 6C11.2642 6 9.75 7.51425 9.75 9.375C9.75 11.2357 11.2642 12.75 13.125 12.75ZM13.125 7.5C14.1593 7.5 15 8.34075 15 9.375C15 10.4092 14.1593 11.25 13.125 11.25C12.0907 11.25 11.25 10.4092 11.25 9.375C11.25 8.34075 12.0907 7.5 13.125 7.5ZM6.32475 13.9552C6.89475 14.5267 6.89475 15.4725 6.315 16.0537L4.66575 17.7697C4.51875 17.9227 4.32225 18 4.125 18C3.9375 18 3.75075 17.9302 3.60525 17.7907C3.30675 17.5035 3.297 17.0287 3.58425 16.7302L4.52625 15.75H3C1.3455 15.75 0 14.4045 0 12.75V12C0 11.5852 0.336 11.25 0.75 11.25C1.164 11.25 1.5 11.5852 1.5 12V12.75C1.5 13.5772 2.17275 14.25 3 14.25H4.52175L3.58425 13.2697C3.297 12.9712 3.306 12.4965 3.60525 12.2092C3.90375 11.9227 4.3785 11.931 4.66575 12.2295L6.32475 13.9552ZM17.4622 17.9692C17.391 17.9902 17.3205 18 17.2507 18C16.926 18 16.6275 17.7885 16.5315 17.4615C16.1055 16.0117 14.7045 15 13.1257 15C11.547 15 10.146 16.0125 9.72 17.4615C9.603 17.8582 9.1875 18.0885 8.7885 17.9692C8.391 17.853 8.16375 17.436 8.28075 17.0385C8.8935 14.9557 10.8855 13.5 13.125 13.5C15.3645 13.5 17.3573 14.955 17.9692 17.0385C18.0863 17.436 17.859 17.853 17.4615 17.9692H17.4622ZM7.764 9.70275C7.677 9.735 7.5885 9.75 7.50075 9.75C7.197 9.75 6.91125 9.56475 6.798 9.26325C6.40275 8.20875 5.32875 7.5 4.12575 7.5C2.92275 7.5 1.848 8.208 1.4535 9.26325C1.308 9.6525 0.87525 9.846 0.4875 9.70275C0.09975 9.55725 -0.09675 9.1245 0.04875 8.7375C0.66225 7.10025 2.301 6.00075 4.1265 6.00075C5.952 6.00075 7.59 7.101 8.20425 8.7375C8.34975 9.12525 8.15325 9.55725 7.7655 9.70275H7.764Z" fill="#F04F32"/>
</g>
<defs>
<clipPath id="clip0_402_2320">
<rect width="18" height="18" fill="white"/>
</clipPath>
</defs>
</svg>
