<svg width="81" height="80" viewBox="0 0 81 80" fill="none" xmlns="http://www.w3.org/2000/svg">
<circle cx="40.5" cy="40" r="40" fill="#F9B9AD" fill-opacity="0.29"/>
<path fill-rule="evenodd" clip-rule="evenodd" d="M40.4995 23.619C33.9978 23.619 28.6899 28.7963 28.6899 35.2282C28.6899 38.9162 30.2088 41.7874 33.0872 44.2652C34.9388 45.8591 38.2558 49.2412 39.5314 51.2739C39.7371 51.6016 40.0945 51.803 40.4813 51.8092C40.8681 51.8153 41.2318 51.6253 41.4477 51.3043C42.8093 49.2803 46.0811 45.8411 47.9117 44.2652C50.7901 41.7874 52.309 38.9162 52.309 35.2282C52.309 28.7963 47.0012 23.619 40.4995 23.619ZM45.0709 35.4285C45.0709 37.9532 43.0242 39.9999 40.4995 39.9999C37.9747 39.9999 35.928 37.9532 35.928 35.4285C35.928 32.9038 37.9747 30.8571 40.4995 30.8571C43.0242 30.8571 45.0709 32.9038 45.0709 35.4285Z" fill="#F04F32"/>
<path fill-rule="evenodd" clip-rule="evenodd" d="M26.8944 54.2911L29.942 46.6721L32.7717 47.8039L30.5599 53.3333H50.4394L48.2277 47.8039L51.0574 46.6721L54.105 54.2911C54.2928 54.7606 54.2355 55.2927 53.952 55.7114C53.6685 56.1301 53.1958 56.3809 52.6902 56.3809H28.3092C27.8036 56.3809 27.3309 56.1301 27.0474 55.7114C26.7639 55.2927 26.7066 54.7606 26.8944 54.2911Z" fill="#F04F32"/>
</svg>
