<svg width="26" height="26" viewBox="0 0 26 26" fill="none" xmlns="http://www.w3.org/2000/svg">
<path fill-rule="evenodd" clip-rule="evenodd" d="M22.0482 11.3976L20.1887 16.976C18.8777 20.9092 18.2221 22.8758 17.2609 23.4346C16.3464 23.9663 15.2169 23.9663 14.3024 23.4346C13.3411 22.8758 12.6856 20.9092 11.3745 16.976C11.164 16.3445 11.0588 16.0287 10.8821 15.7648C10.7109 15.509 10.4911 15.2893 10.2353 15.118C9.97141 14.9413 9.65564 14.8361 9.0241 14.6256C5.09092 13.3145 3.12433 12.659 2.56548 11.6977C2.03384 10.7832 2.03384 9.65374 2.56548 8.73925C3.12433 7.77796 5.09092 7.12243 9.0241 5.81137L14.6026 3.95189C19.4758 2.32747 21.9124 1.51526 23.1986 2.80147C24.4848 4.08768 23.6726 6.5243 22.0482 11.3976ZM14.1329 11.8107C13.8174 11.4917 13.8202 10.9772 14.1393 10.6617L18.7007 6.15056C19.0197 5.83502 19.5342 5.83787 19.8497 6.15692C20.1652 6.47598 20.1624 6.99042 19.8433 7.30596L15.2819 11.8171C14.9629 12.1326 14.4484 12.1298 14.1329 11.8107Z" fill="white"/>
</svg>
