<svg width="22" height="22" viewBox="0 0 22 22" fill="none" xmlns="http://www.w3.org/2000/svg">
<path d="M8.61208 17.7569L9.14782 18.9618C9.30708 19.3205 9.56699 19.6252 9.89603 19.8391C10.2251 20.053 10.6091 20.1668 11.0015 20.1667C11.394 20.1668 11.778 20.053 12.107 19.8391C12.4361 19.6252 12.696 19.3205 12.8552 18.9618L13.391 17.7569C13.5817 17.3294 13.9025 16.9729 14.3076 16.7384C14.7154 16.5032 15.187 16.403 15.6551 16.4522L16.966 16.5917C17.3562 16.633 17.75 16.5602 18.0996 16.3821C18.4492 16.204 18.7397 15.9283 18.9358 15.5885C19.1321 15.2488 19.2257 14.8595 19.205 14.4677C19.1844 14.0759 19.0506 13.6985 18.8197 13.3813L18.0436 12.3149C17.7672 11.9324 17.6195 11.472 17.6219 11C17.6218 10.5294 17.7709 10.0709 18.0476 9.69023L18.8237 8.62384C19.0546 8.30665 19.1885 7.92927 19.2091 7.53749C19.2297 7.14571 19.1362 6.75637 18.9399 6.41671C18.7438 6.07684 18.4533 5.80116 18.1037 5.62308C17.754 5.44501 17.3602 5.37219 16.97 5.41347L15.6592 5.553C15.1911 5.60217 14.7194 5.50199 14.3117 5.2668C13.9057 5.03094 13.5849 4.67262 13.395 4.24319L12.8552 3.03828C12.696 2.67961 12.4361 2.37486 12.107 2.16099C11.778 1.94712 11.394 1.83331 11.0015 1.83337C10.6091 1.83331 10.2251 1.94712 9.89603 2.16099C9.56699 2.37486 9.30708 2.67961 9.14782 3.03828L8.61208 4.24319C8.42227 4.67262 8.10138 5.03094 7.69541 5.2668C7.2877 5.50199 6.81603 5.60217 6.34791 5.553L5.03301 5.41347C4.64281 5.37219 4.24902 5.44501 3.89938 5.62308C3.54974 5.80116 3.25927 6.07684 3.06319 6.41671C2.86686 6.75637 2.77333 7.14571 2.79394 7.53749C2.81455 7.92927 2.94842 8.30665 3.1793 8.62384L3.95541 9.69023C4.23219 10.0709 4.38124 10.5294 4.38116 11C4.38124 11.4707 4.23219 11.9292 3.95541 12.3099L3.1793 13.3762C2.94842 13.6934 2.81455 14.0708 2.79394 14.4626C2.77333 14.8544 2.86686 15.2437 3.06319 15.5834C3.25947 15.9231 3.54997 16.1986 3.89956 16.3767C4.24915 16.5547 4.64284 16.6276 5.03301 16.5866L6.34384 16.4471C6.81195 16.3979 7.28362 16.4981 7.69134 16.7333C8.09882 16.9685 8.4212 17.3269 8.61208 17.7569Z" stroke="white" stroke-width="1.83333" stroke-linecap="round" stroke-linejoin="round"/>
<path d="M10.9999 13.75C12.5187 13.75 13.7499 12.5188 13.7499 11C13.7499 9.48126 12.5187 8.25004 10.9999 8.25004C9.4811 8.25004 8.24989 9.48126 8.24989 11C8.24989 12.5188 9.4811 13.75 10.9999 13.75Z" stroke="white" stroke-width="1.83333" stroke-linecap="round" stroke-linejoin="round"/>
</svg>
