<svg width="44" height="43" viewBox="0 0 44 43" fill="none" xmlns="http://www.w3.org/2000/svg">
<rect opacity="0.08" x="0.5" width="43" height="43" rx="21.5" fill="#0051FF"/>
<mask id="mask0_798_4192" style="mask-type:alpha" maskUnits="userSpaceOnUse" x="12" y="11" width="20" height="21">
<rect x="12" y="11.5" width="20" height="20" fill="white"/>
</mask>
<g mask="url(#mask0_798_4192)">
<path d="M30.3337 14.8417C29.5003 15.25 28.6837 15.4158 27.8337 15.6667C26.8995 14.6125 25.5145 14.5542 24.1837 15.0525C22.8528 15.5508 21.9812 16.7692 22.0003 18.1667V19C19.2962 19.0692 16.8878 17.8375 15.3337 15.6667C15.3337 15.6667 11.8487 21.8608 18.667 24.8333C17.107 25.8725 15.5512 26.5733 13.667 26.5C16.4237 28.0025 19.4278 28.5192 22.0287 27.7642C25.012 26.8975 27.4637 24.6617 28.4045 21.3125C28.6851 20.2939 28.8245 19.2416 28.8187 18.185C28.817 17.9775 30.077 15.875 30.3337 14.8408V14.8417Z" stroke="#1DA1F2" stroke-linecap="round" stroke-linejoin="round"/>
</g>
</svg>
