<svg width="22" height="22" viewBox="0 0 22 22" fill="none" xmlns="http://www.w3.org/2000/svg">
<path d="M18.3332 19.25C18.3332 17.9707 18.3332 17.3311 18.1753 16.8106C17.8198 15.6387 16.9028 14.7217 15.7309 14.3662C15.2104 14.2083 14.5708 14.2083 13.2915 14.2083H8.70817C7.42891 14.2083 6.78927 14.2083 6.26879 14.3662C5.09692 14.7217 4.17987 15.6387 3.82439 16.8106C3.6665 17.3311 3.6665 17.9707 3.6665 19.25M15.1248 6.875C15.1248 9.15317 13.278 11 10.9998 11C8.72166 11 6.87484 9.15317 6.87484 6.875C6.87484 4.59683 8.72166 2.75 10.9998 2.75C13.278 2.75 15.1248 4.59683 15.1248 6.875Z" stroke="#F04F32" stroke-width="1.5" stroke-linecap="round" stroke-linejoin="round"/>
</svg>
