<svg width="16" height="16" viewBox="0 0 16 16" fill="none" xmlns="http://www.w3.org/2000/svg">
<path d="M3.68 1.76004L2.64 3.14671C2.43401 3.42136 2.33102 3.55869 2.33341 3.67363C2.33549 3.77367 2.38239 3.86747 2.46117 3.92916C2.55169 4.00004 2.72335 4.00004 3.06667 4.00004H12.9333C13.2766 4.00004 13.4483 4.00004 13.5388 3.92916C13.6176 3.86747 13.6645 3.77367 13.6666 3.67363C13.669 3.55869 13.566 3.42136 13.36 3.14671L12.32 1.76004M3.68 1.76004C3.79733 1.6036 3.856 1.52537 3.93035 1.46896C3.9962 1.41899 4.07077 1.3817 4.15026 1.359C4.24 1.33337 4.33778 1.33337 4.53333 1.33337H11.4667C11.6622 1.33337 11.76 1.33337 11.8497 1.359C11.9292 1.3817 12.0038 1.41899 12.0697 1.46896C12.144 1.52537 12.2027 1.6036 12.32 1.76004M3.68 1.76004L2.42667 3.43115C2.26836 3.64223 2.18921 3.74776 2.133 3.86399C2.08312 3.96712 2.04675 4.07625 2.02477 4.18868C2 4.31538 2 4.4473 2 4.71115L2 12.5334C2 13.2801 2 13.6535 2.14532 13.9387C2.27316 14.1896 2.47713 14.3935 2.72801 14.5214C3.01323 14.6667 3.3866 14.6667 4.13333 14.6667L11.8667 14.6667C12.6134 14.6667 12.9868 14.6667 13.272 14.5214C13.5229 14.3936 13.7268 14.1896 13.8547 13.9387C14 13.6535 14 13.2801 14 12.5334V4.71115C14 4.44731 14 4.31538 13.9752 4.18868C13.9533 4.07625 13.9169 3.96712 13.867 3.86399C13.8108 3.74777 13.7316 3.64223 13.5733 3.43115L12.32 1.76004M10.6667 6.66671C10.6667 7.37395 10.3857 8.05223 9.88562 8.55232C9.38552 9.05242 8.70724 9.33337 8 9.33337C7.29276 9.33337 6.61448 9.05242 6.11438 8.55232C5.61428 8.05223 5.33333 7.37395 5.33333 6.66671" stroke="black" stroke-width="1.33333" stroke-linecap="round" stroke-linejoin="round"/>
</svg>
